# xmcd CD database file
#
# Track frame offsets:
#	150
#	8340
#	20042
#	26547
#	38507
#	52477
#	61232
#	70692
#	81235
#	89825
#	101665
#	113930
#
# Disc length: 1685 seconds
#
# Revision: 0
# Processed by: cddbd v1.5PL3 Copyright (c) Steve Scherf et al.
# Submitted via: CDex 1.50
#
DISCID=9a06930c
DTITLE=Groovy Rednecks - Wishful Drinkin'
DYEAR=1999
DGENRE=Country
TTITLE0=I Give Up Easy
TTITLE1=Give My Love To Louise
TTITLE2=Settin' the Woods on Fire
TTITLE3=No Tequila
TTITLE4=Laid Off
TTITLE5=30 Years Ain't Nothin'
TTITLE6=Speak of the Devil
TTITLE7=Bertha Don't Break Down
TTITLE8=Wedding Ring
TTITLE9=The Palomino
TTITLE10=Born That Way
TTITLE11=Follow My Finger
EXTD=YEAR: 1999
EXTT0=
EXTT1=
EXTT2=
EXTT3=
EXTT4=
EXTT5=
EXTT6=
EXTT7=
EXTT8=
EXTT9=
EXTT10=
EXTT11=
PLAYORDER=
